<svg xmlns="http://www.w3.org/2000/svg" xmlns:xlink="http://www.w3.org/1999/xlink" viewBox="0 0 225.55 228.03"><defs><style>.cls-1{isolation:isolate;}.cls-2{opacity:0.4;mix-blend-mode:multiply;fill:url(#linear-gradient);}.cls-3{fill:#cec09f;}.cls-3,.cls-4,.cls-5{stroke:#212683;stroke-miterlimit:10;stroke-width:6px;}.cls-4{fill:#9dcc96;}.cls-5{fill:none;}.cls-6{fill:#212683;}</style><linearGradient id="linear-gradient" x1="202.4" y1="614.04" x2="432.86" y2="614.04" gradientTransform="translate(601.4 627.09) rotate(163.57)" gradientUnits="userSpaceOnUse"><stop offset="0" stop-color="#efa6c2"/><stop offset="1" stop-color="#96cdbd"/></linearGradient></defs><title>Dumbell </title><g class="cls-1"><g id="Layer_2" data-name="Layer 2"><g id="Layer_1-2" data-name="Layer 1"><path class="cls-2" d="M223.13,59.83a58.63,58.63,0,0,0-65.84-41.26,62.06,62.06,0,0,0-7,1.61,57.67,57.67,0,0,0-9.24,3.59c-1.06.52-2.1,1.06-3.12,1.65a54.62,54.62,0,0,0-5.14,3.28,58.62,58.62,0,0,0-18.18,21.17,59.07,59.07,0,0,0-2.43,5.45c-.27.7-.53,1.41-.77,2.12a58.9,58.9,0,0,0-2,7.42c-.11.56-.22,1.12-.32,1.69a57.68,57.68,0,0,0-.83,10c0,.42,0,.86,0,1.29,0,.21,0,.42,0,.63-.13-.21-.26-.42-.4-.63-.25-.4-.52-.79-.79-1.18a58.35,58.35,0,0,0-8.65-10.06A57.74,57.74,0,0,0,92,61.35a57.09,57.09,0,0,0-11.07-6c-.88-.37-1.76-.71-2.66-1a58.53,58.53,0,0,0-10-2.59h0a57.61,57.61,0,0,0-15.76-.48A60.29,60.29,0,0,0,42.05,53.3,58.62,58.62,0,0,0,49,167.35a0,0,0,0,0,.05,0,54.44,54.44,0,0,0,5.72.68c0,.24,0,.48,0,.72a58.63,58.63,0,0,0,117.22,2.42c0-1.28,0-2.56,0-3.85a57.93,57.93,0,0,0-1.3-10.31c-.3-1.4-.66-2.79-1.07-4.19a58.47,58.47,0,0,0-4.14-10.33c0-.06-.06-.12-.08-.17a57.87,57.87,0,0,0-4.76-7.64c1,.11,2,.19,3,.25a59.58,59.58,0,0,0,7.67-.09c1.46-.09,2.9-.27,4.37-.49l.39-.06a59.84,59.84,0,0,0,7.44-1.67,59.11,59.11,0,0,0,9-3.46,58.44,58.44,0,0,0,14.38-9.84,56.86,56.86,0,0,0,4.49-4.7,58.59,58.59,0,0,0,11.79-54.8ZM118.1,111l-.86-.07c0-1.12,0-2.25,0-3.38.64,1,1.31,2.06,2,3,.12.2.26.38.4.57Q118.88,111,118.1,111Z"/><rect class="cls-3" x="33.16" y="103.49" width="45.43" height="116.31" rx="22.72" ry="22.72" transform="translate(-97.93 86.85) rotate(-45)"/><rect class="cls-3" x="144.02" y="-7.38" width="45.43" height="116.31" rx="22.72" ry="22.72" transform="translate(12.93 132.77) rotate(-45)"/><polyline class="cls-4" points="129.71 107.29 160.42 76.58 140.46 56.62 61.71 135.36 81.68 155.32 112.39 124.61"/><path class="cls-4" d="M28.45,161.78H38.73a3.53,3.53,0,0,1,3.53,3.53V205a3.53,3.53,0,0,1-3.53,3.53H28.45A10.25,10.25,0,0,1,18.2,198.25V172a10.25,10.25,0,0,1,10.25-10.25Z" transform="translate(-122.06 75.6) rotate(-45)"/><path class="cls-4" d="M188.46,1.77h10.28a3.53,3.53,0,0,1,3.53,3.53V45a3.53,3.53,0,0,1-3.53,3.53H188.46a10.25,10.25,0,0,1-10.25-10.25V12A10.25,10.25,0,0,1,188.46,1.77Z" transform="translate(342.53 -91.61) rotate(135)"/><line class="cls-5" x1="14.75" y1="120.52" x2="96.99" y2="202.76"/><line class="cls-5" x1="125.62" y1="9.65" x2="207.86" y2="91.9"/><circle class="cls-6" cx="121.05" cy="115.95" r="3.21" transform="translate(-46.54 119.56) rotate(-45)"/><line class="cls-5" x1="71.94" y1="145.58" x2="126.3" y2="91.21"/><line class="cls-5" x1="131.61" y1="85.91" x2="137.44" y2="80.07"/><path class="cls-6" d="M38.93,30.39H36.58V28a2.9,2.9,0,0,0-5.8,0v2.35H28.43a2.9,2.9,0,0,0,0,5.8h2.35v2.35a2.9,2.9,0,0,0,5.8,0V36.19h2.35a2.9,2.9,0,0,0,0-5.8Z"/><path class="cls-6" d="M201.51,134.53h-2.35v-2.35a2.9,2.9,0,0,0-5.8,0v2.35H191a2.9,2.9,0,0,0,0,5.8h2.35v2.35a2.9,2.9,0,0,0,5.8,0v-2.35h2.35a2.9,2.9,0,0,0,0-5.8Z"/><path class="cls-6" d="M136.86,166.89h-2.35v-2.35a2.9,2.9,0,0,0-5.8,0v2.35h-2.35a2.9,2.9,0,0,0,0,5.8h2.35V175a2.9,2.9,0,0,0,5.8,0v-2.35h2.35a2.9,2.9,0,0,0,0-5.8Z"/></g></g></g></svg>