<svg xmlns="http://www.w3.org/2000/svg" viewBox="0 0 512 512"><title>Glasses</title><g id="Glasses"><path d="M439.7124,206.6777c-55.8647-14.4-124.1851-.9048-159.937,8.4209a93.9165,93.9165,0,0,1-47.5093-.0664c-35.31-9.2915-102.8745-22.7329-158.6489-8.3545A5.5,5.5,0,1,0,76.3623,217.33c.9158-.2361,1.8434-.4451,2.7661-.6655a16.9266,16.9266,0,0,0,.1612,3.4853l8.5542,56.2456a64.1589,64.1589,0,0,0,63.2368,54.3506q2.6784,0,5.3935-.228l12.711-1.0747c35.5556-3.0059,61.6543-24.2173,68.1108-55.357l2.7734-13.3762a39.0028,39.0028,0,0,1,31.7174-.6944l2.9174,14.0706c6.4565,31.14,32.5552,52.3511,68.1108,55.357l12.711,1.0747q2.7158.2292,5.3935.228a64.1657,64.1657,0,0,0,63.2369-54.3506l8.5541-56.2456a16.9282,16.9282,0,0,0,.1368-3.8106c1.3794.317,2.7566.6393,4.12.9908a5.5,5.5,0,1,0,2.7451-10.6519Zm-213.187,65.1748c-5.5112,26.58-27.2935,44.0113-58.2671,46.6294l-12.7109,1.0747a53.1032,53.1032,0,0,1-56.8286-44.8159l-8.5542-56.2456a6.0917,6.0917,0,0,1,.8964-4.2471c50.2174-8.342,107.221,3.2164,138.4063,11.4219q3.1462.828,6.3323,1.4531Zm30.3769-25.87h-.1977a50.2973,50.2973,0,0,0-13.9918,1.9777l3.9967-19.2765c3.1448.2839,6.2995.4341,9.4541.4341,3.0481,0,6.0951-.1426,9.1323-.4077l3.9071,18.8441A50.3225,50.3225,0,0,0,256.9023,245.9829Zm164.9331-27.4878-8.5541,56.2456a53.1114,53.1114,0,0,1-56.8287,44.8159l-12.7109-1.0747c-30.9736-2.6181-52.7559-20.05-58.2671-46.6294l-9.2619-44.67q3.188-.6216,6.3391-1.44c31.2909-8.1615,88.1685-19.628,138.2348-11.7294A6.0942,6.0942,0,0,1,421.8354,218.4951Z"/></g></svg>