<?xml version="1.0" encoding="UTF-8"?>
<!DOCTYPE svg PUBLIC "-//W3C//DTD SVG 1.1//EN" "http://www.w3.org/Graphics/SVG/1.1/DTD/svg11.dtd">
<!-- Creator: CorelDRAW -->
<svg xmlns="http://www.w3.org/2000/svg" xml:space="preserve" width="6.82666in" height="6.82666in" style="shape-rendering:geometricPrecision; text-rendering:geometricPrecision; image-rendering:optimizeQuality; fill-rule:evenodd; clip-rule:evenodd"
viewBox="0 0 6.82666 6.82666"
 xmlns:xlink="http://www.w3.org/1999/xlink">
 <defs>
  <style type="text/css">
   <![CDATA[
    .fil0 {fill:none}
    .fil2 {fill:#424343}
    .fil5 {fill:#D7D7D7}
    .fil6 {fill:#F0F0F0}
    .fil7 {fill:#424343;fill-rule:nonzero}
    .fil1 {fill:#4C4C4C;fill-rule:nonzero}
    .fil3 {fill:#575758;fill-rule:nonzero}
    .fil4 {fill:#5C5C5C;fill-rule:nonzero}
   ]]>
  </style>
 </defs>
 <g id="Layer_x0020_1">
  <metadata id="CorelCorpID_0Corel-Layer"/>
  <rect class="fil0" width="6.82666" height="6.82666"/>
  <rect class="fil0" width="6.82666" height="6.82666"/>
  <g id="_339605408">
   <path id="_339602480" class="fil1" d="M5.94407 3.53643c0.0289764,0.0619843 0.0276142,0.430449 -0.0579291,0.247469l-0.194598 -0.47185c-0.090937,-0.221661 -0.323744,-0.776146 -0.445681,-0.952193 -0.0628031,-0.0906772 -0.162795,-0.0792835 -0.162795,0.110142 0,0.0589094 -0.10085,0.154449 -0.148402,0.154449 -0.0475512,0 -0.0238031,-0.0955394 -0.0238031,-0.154449 0,-0.112209 0.0240906,-0.201677 0.063878,-0.263921 0.0326024,-0.0510236 0.0747638,-0.0834843 0.123016,-0.0959134 0.0455512,-0.0117323 0.0950276,-0.00487795 0.145087,0.0219331 0.0757717,0.0405787 0.154843,0.129657 0.221461,0.272205l0.479768 1.13213z"/>
   <path id="_339602360" class="fil1" d="M0.870118 3.53643c-0.0289764,0.0619843 -0.0276142,0.430449 0.0579291,0.247469l0.194598 -0.47185c0.090937,-0.221661 0.323744,-0.776146 0.445681,-0.952193 0.0628031,-0.0906772 0.162795,-0.0792835 0.162795,0.110142 0,0.0589094 0.10085,0.154449 0.148402,0.154449 0.0475512,0 0.0238031,-0.0955394 0.0238031,-0.154449 0,-0.112209 -0.0240906,-0.201677 -0.063878,-0.263921 -0.0326024,-0.0510236 -0.0747638,-0.0834843 -0.123016,-0.0959134 -0.0455512,-0.0117323 -0.0950276,-0.00487795 -0.145087,0.0219331 -0.0757717,0.0405787 -0.154843,0.129657 -0.221461,0.272205l-0.479768 1.13213z"/>
   <rect id="_339602960" class="fil2" x="0.841055" y="3.52347" width="0.091252" height="0.424886" rx="0.045626" ry="0.045626"/>
   <rect id="_339602888" class="fil2" x="5.89435" y="3.52347" width="0.091252" height="0.424886" rx="0.045626" ry="0.045626"/>
   <path id="_339602456" class="fil3" d="M3.21884 3.6458c-0.0589094,0 -0.106669,0.094874 -0.106669,0.211894 0,0.11702 0.0477598,0.110756 0.106669,0.110756 0.116157,-0.0305079 0.234874,-0.0462913 0.364429,0 0.0589094,0 0.106669,0.00626378 0.106669,-0.110756 0,-0.11702 -0.0477598,-0.211894 -0.106669,-0.211894l-0.364429 0z"/>
   <path id="_339602408" class="fil4" d="M1.33754 3.33554l1.66067 0c0.0753622,0 0.144146,0.0300157 0.194256,0.0783701 0.0512402,0.0494409 0.0830394,0.117744 0.0830394,0.192953 0,0.0485197 -3.93701e-005,0.155894 -0.00820866,0.291232 -0.00806693,0.133685 -0.0242323,0.289185 -0.0565866,0.426961 -0.0370039,0.157575 -0.13313,0.268583 -0.279972,0.333504 -0.134965,0.0596693 -0.312555,0.0771535 -0.525028,0.0528543 -0.300118,-0.0343307 -0.631382,-0.0903858 -0.902236,-0.186398 -0.293217,-0.103933 -0.519409,-0.257299 -0.578094,-0.484929 -0.0451929,-0.175291 -0.0710512,-0.336579 -0.0374646,-0.460472 0.0404291,-0.149118 0.166984,-0.244075 0.449622,-0.244075z"/>
   <path id="_339602432" class="fil5" d="M1.33754 3.54942c-0.0685,0 -0.220031,-0.000850394 -0.243724,0.0894094 -0.025185,0.0959528 0.0146417,0.268787 0.0381417,0.362949 0.0450394,0.180429 0.290945,0.292602 0.442795,0.348197 0.26737,0.0978937 0.573764,0.148043 0.855205,0.181291 0.128933,0.0152323 0.293213,0.0181929 0.414524,-0.0372047 0.0858858,-0.0392165 0.136957,-0.0983386 0.158551,-0.193315 0.0296772,-0.130531 0.0435079,-0.270146 0.0513228,-0.403894 0.0056063,-0.0959173 0.00782283,-0.191472 0.00782283,-0.287535 0,-0.0158622 -0.00694488,-0.0298701 -0.0178386,-0.0407323 -0.0124291,-0.0123858 -0.0288701,-0.0191654 -0.046126,-0.0191654l-1.66067 0z"/>
   <path id="_339606296" class="fil6" d="M2.03139 4.47154c0.0142598,0.00271654 0.0285276,0.00535433 0.0427992,0.00792126l0.473654 -0.672677 -0.00966142 -0.158354 -0.506791 0.82311zm0.836563 -0.922118l-0.062937 0 -0.438236 0.711768 0.501173 -0.711768z"/>
   <path id="_339606128" class="fil7" d="M1.33754 3.56664l-0.00189764 0 0 -6.69291e-005c-0.0653071,-3.93701e-006 -0.205606,-1.5748e-005 -0.225744,0.0766969 -0.0119016,0.0453425 -0.00825197,0.110177 0.00120472,0.175157 0.00970472,0.0667008 0.0253425,0.132657 0.036937,0.179118 0.0212874,0.0852756 0.0912953,0.155264 0.174311,0.210756 0.0846457,0.0565827 0.182874,0.0979921 0.257937,0.125472 0.132831,0.0486378 0.275476,0.085437 0.419917,0.114213 0.144685,0.0288268 0.29126,0.049622 0.431642,0.0662047 0.0637126,0.00752756 0.136087,0.0120276 0.207315,0.00781496 0.0704961,-0.00417323 0.139925,-0.016874 0.198614,-0.0436772 0.0406811,-0.0185748 0.0729764,-0.041689 0.0974606,-0.0711693 0.0244213,-0.0294134 0.0414094,-0.065563 0.0515827,-0.110307 0.0146772,-0.064563 0.0254567,-0.131508 0.0335354,-0.198925 0.0081378,-0.0678858 0.0135236,-0.135807 0.0173976,-0.202079 0.0028189,-0.0482953 0.00477953,-0.095937 0.00601181,-0.143106 0.00120866,-0.0461102 0.00174409,-0.0940079 0.00174409,-0.143421 0,-0.00519685 -0.00109449,-0.0100827 -0.00305118,-0.0145472 -0.00221654,-0.00506299 -0.00553543,-0.00971654 -0.00964173,-0.013811 -0.00465748,-0.0046378 -0.0100551,-0.00822835 -0.0158701,-0.0106457 -0.00580315,-0.00240945 -0.0121535,-0.00367717 -0.0187323,-0.00367717l-1.66067 0zm-0.00189764 -0.0343622l0 -7.08661e-005 0.00189764 0 1.66067 0c0.0107008,0 0.021248,0.00214173 0.0311024,0.00623622 0.00977953,0.00406299 0.0188031,0.0100591 0.0265472,0.0177717 0.00711811,0.00709843 0.0129409,0.0153228 0.0169331,0.0244409 0.00388189,0.0088622 0.00605118,0.0184921 0.00605118,0.0286654 0,0.0466535 -0.00057874,0.0945748 -0.00187795,0.144224 -0.00126772,0.0485906 -0.00323228,0.0967008 -0.00601181,0.144319 -0.00394094,0.0674803 -0.00938189,0.136256 -0.0175315,0.204232 -0.00820079,0.0684488 -0.019185,0.136591 -0.0341811,0.202555 -0.0114213,0.0502205 -0.0307717,0.0911378 -0.058748,0.124831 -0.0279173,0.0336142 -0.0641181,0.059689 -0.109311,0.0803189 -0.0626181,0.0285984 -0.136,0.0421142 -0.210197,0.0465 -0.0734646,0.00435039 -0.147717,-0.000251969 -0.212921,-0.00795276 -0.141051,-0.0166614 -0.288417,-0.0375748 -0.434114,-0.0666024 -0.145953,-0.0290748 -0.290205,-0.0663031 -0.424736,-0.115563 -0.0767795,-0.0281102 -0.177449,-0.0705945 -0.264969,-0.129098 -0.0891496,-0.0595906 -0.164626,-0.135917 -0.188374,-0.231063 -0.0119055,-0.0476969 -0.027937,-0.115256 -0.0377165,-0.182488 -0.0100354,-0.0689606 -0.0137087,-0.138539 -0.000425197,-0.189138 0.026811,-0.102142 0.184504,-0.10213 0.257909,-0.102118z"/>
   <path id="_339605480" class="fil4" d="M5.49529 3.33554l-1.66067 0c-0.0753622,0 -0.144146,0.0300157 -0.194256,0.0783701 -0.0512402,0.0494409 -0.0830394,0.117744 -0.0830394,0.192953 0,0.0485197 3.93701e-005,0.155894 0.00820866,0.291232 0.00806693,0.133685 0.0242323,0.289185 0.0565866,0.426961 0.0370039,0.157575 0.13313,0.268583 0.279972,0.333504 0.134965,0.0596693 0.312555,0.0771535 0.525028,0.0528543 0.300118,-0.0343307 0.631382,-0.0903858 0.902236,-0.186398 0.293217,-0.103933 0.519409,-0.257299 0.578094,-0.484929 0.0451929,-0.175291 0.0710512,-0.336579 0.0374646,-0.460472 -0.0404291,-0.149118 -0.166984,-0.244075 -0.449622,-0.244075z"/>
   <path id="_339605360" class="fil5" d="M5.49529 3.54942c0.0685,0 0.220031,-0.000850394 0.243724,0.0894094 0.025185,0.0959528 -0.0146417,0.268787 -0.0381417,0.362949 -0.0450394,0.180429 -0.290945,0.292602 -0.442795,0.348197 -0.26737,0.0978937 -0.573764,0.148043 -0.855205,0.181291 -0.128933,0.0152323 -0.293213,0.0181929 -0.414524,-0.0372047 -0.0858858,-0.0392165 -0.136957,-0.0983386 -0.158551,-0.193315 -0.0296772,-0.130531 -0.0435079,-0.270146 -0.0513228,-0.403894 -0.0056063,-0.0959173 -0.00782283,-0.191472 -0.00782283,-0.287535 0,-0.0158622 0.00694488,-0.0298701 0.0178386,-0.0407323 0.0124291,-0.0123858 0.0288701,-0.0191654 0.046126,-0.0191654l1.66067 0z"/>
   <path id="_339605840" class="fil6" d="M4.27605 4.5405c-0.0185984,0.000425197 -0.0373898,0.00042126 -0.0561969,-0.000145669l0.451665 -0.733575 0.00966142 0.158354 -0.40513 0.575366zm0.759799 -0.991079l0.0769409 0 -0.612673 0.870118 0.535732 -0.870118z"/>
   <path id="_339605912" class="fil7" d="M5.49529 3.56664l0.00189764 0 0 -6.69291e-005c0.0653071,-3.93701e-006 0.205606,-1.5748e-005 0.225744,0.0766969 0.0119016,0.0453425 0.00825197,0.110177 -0.00120472,0.175157 -0.00970472,0.0667008 -0.0253425,0.132657 -0.036937,0.179118 -0.0212874,0.0852756 -0.0912953,0.155264 -0.174311,0.210756 -0.0846457,0.0565827 -0.182874,0.0979921 -0.257937,0.125472 -0.132831,0.0486378 -0.275476,0.085437 -0.419917,0.114213 -0.144685,0.0288268 -0.29126,0.049622 -0.431642,0.0662047 -0.0637126,0.00752756 -0.136087,0.0120276 -0.207315,0.00781496 -0.0704961,-0.00417323 -0.139925,-0.016874 -0.198614,-0.0436772 -0.0406811,-0.0185748 -0.0729764,-0.041689 -0.0974606,-0.0711693 -0.0244213,-0.0294134 -0.0414094,-0.065563 -0.0515827,-0.110307 -0.0146772,-0.064563 -0.0254567,-0.131508 -0.0335354,-0.198925 -0.0081378,-0.0678858 -0.0135236,-0.135807 -0.0173976,-0.202079 -0.0028189,-0.0482953 -0.00477953,-0.095937 -0.00601181,-0.143106 -0.00120866,-0.0461102 -0.00174409,-0.0940079 -0.00174409,-0.143421 0,-0.00519685 0.00109449,-0.0100827 0.00305118,-0.0145472 0.00221654,-0.00506299 0.00553543,-0.00971654 0.00964173,-0.013811 0.00465748,-0.0046378 0.0100551,-0.00822835 0.0158701,-0.0106457 0.00580315,-0.00240945 0.0121535,-0.00367717 0.0187323,-0.00367717l1.66067 0zm0.00189764 -0.0343622l0 -7.08661e-005 -0.00189764 0 -1.66067 0c-0.0107008,0 -0.021248,0.00214173 -0.0311024,0.00623622 -0.00977953,0.00406299 -0.0188031,0.0100591 -0.0265472,0.0177717 -0.00711811,0.00709843 -0.0129409,0.0153228 -0.0169331,0.0244409 -0.00388189,0.0088622 -0.00605118,0.0184921 -0.00605118,0.0286654 0,0.0466535 0.00057874,0.0945748 0.00187795,0.144224 0.00126772,0.0485906 0.00323228,0.0967008 0.00601181,0.144319 0.00394094,0.0674803 0.00938189,0.136256 0.0175315,0.204232 0.00820079,0.0684488 0.019185,0.136591 0.0341811,0.202555 0.0114213,0.0502205 0.0307717,0.0911378 0.058748,0.124831 0.0279173,0.0336142 0.0641181,0.059689 0.109311,0.0803189 0.0626181,0.0285984 0.136,0.0421142 0.210197,0.0465 0.0734646,0.00435039 0.147717,-0.000251969 0.212921,-0.00795276 0.141051,-0.0166614 0.288417,-0.0375748 0.434114,-0.0666024 0.145953,-0.0290748 0.290205,-0.0663031 0.424736,-0.115563 0.0767795,-0.0281102 0.177449,-0.0705945 0.264969,-0.129098 0.0891496,-0.0595906 0.164626,-0.135917 0.188374,-0.231063 0.0119055,-0.0476969 0.027937,-0.115256 0.0377165,-0.182488 0.0100354,-0.0689606 0.0137087,-0.138539 0.000425197,-0.189138 -0.026811,-0.102142 -0.184504,-0.10213 -0.257909,-0.102118z"/>
  </g>
  <rect class="fil0" width="6.82666" height="6.82666"/>
 </g>
</svg>
