<svg xmlns="http://www.w3.org/2000/svg" width="48" height="48" viewBox="0 0 48 48">
  <g>
    <g>
      <g>
        <path d="M31.234,24.072C40.859,29.333,43.315,15.289,48,10.965,40.625,10.664,27.168,13.554,31.234,24.072Z" fill="#79ccb8"/>
        <path d="M0,.138C5.36,7.847,6.56,27.183,22.285,22.169,30.013,6.762,10.953-1.162,0,.138Z" fill="#79ccb8"/>
      </g>
      <path d="M42.516,13.416a.751.751,0,0,0-1.028-.261A35.76,35.76,0,0,0,26,31.887C23.232,16.047,14.325,7.362,7.1,2.805a.749.749,0,1,0-.8,1.267c7.424,4.684,16.692,13.9,18.679,31.211v.006a.612.612,0,0,0,.035.11.717.717,0,0,0,.054.158.55.55,0,0,0,.06.077.73.73,0,0,0,.117.136c.026.021.059.035.088.054a.752.752,0,0,0,.16.081c.012,0,.021.013.032.016a.748.748,0,0,0,.193.026h0a.789.789,0,0,0,.084-.005c.021,0,.037-.015.057-.019a.694.694,0,0,0,.174-.056.766.766,0,0,0,.085-.046.747.747,0,0,0,.136-.115.734.734,0,0,0,.061-.064.753.753,0,0,0,.1-.187c.007-.019.02-.035.026-.055l0-.007A34.382,34.382,0,0,1,42.255,14.442.747.747,0,0,0,42.516,13.416Z" fill="#3daa9d"/>
    </g>
    <polygon points="37.919 36.219 25.706 36.219 13.492 36.219 16.125 48 25.706 48 35.286 48 37.919 36.219" fill="#c6c6c6"/>
    <path d="M36.88,32.2H14.532a3,3,0,0,0-3,3v1.018H39.88V35.2A3,3,0,0,0,36.88,32.2Z" fill="#e2e2e2"/>
  </g>
</svg>
